<svg xmlns="http://www.w3.org/2000/svg" viewBox="0 0 83.86 67.25" xml:space="preserve"><path d="M82.81 48.18a2.5 2.5 0 0 0-3.48.6c-6.41 8.96-13.23 10.4-17.74 10.45-.35 0-.68 0-1-.02 7.24-31.8-29.53-42.56-29.53-42.56l-.02.01-3.5-3.17-5.86-8.72C21.45 2.8 21 .12 20.29 0c-.58-.1-1.68 1.48-2.63 3.07-.24-1.17-.57-2.1-.98-2.18-.63-.1-1.86 1.73-2.85 3.43l-5.2-.26-2.7 1.92L.47 9.02 0 9.95l.86 6.21 1.7 1.5 3.64 1.45 6.64 12.43 9.14-5.61c-3.42 3.94-6.58 8.34-6.95 11.45-.07.35-.1.75-.1 1.2.04 7.04-.42 28.17 3.37 28.28 2.53.07 4.04-9.74 4.84-17.6 5.32 4.7 11.84 8.55 15.68 10.62 3.48-.5 7.8-.33 7.1-.92-1.42-1.21-10.73-6.8-6.71-13.09 1.34-2.11 3.16-2.2 4.98-1.4a3.68 3.68 0 0 0-2.73 1.74c-4.02 6.19 5.3 11.72 6.72 12.91.91.77-6.94 1.05-10.09 2.42-1.76.76-2.1 2.6-1.67 3.55.62 1.37 6.7 2.07 12.42 2.15 5.21.07 10.13-.38 10.4-1.31.1-.34.11-.99.08-1.81a23 23 0 0 0 2.27.12h.2c5.7 0 14.47-2.4 21.61-12.57a2.5 2.5 0 0 0-.59-3.49zM8.66 10.27c-.55.69-1.56.8-2.25.25a1.6 1.6 0 0 1-.25-2.25 1.6 1.6 0 0 1 2.5 2z"/></svg>