<svg width="175" height="387" viewBox="0 0 175 387" xmlns="http://www.w3.org/2000/svg"><g fill="#DA4648" fill-rule="evenodd"><path d="M86.72 304.74c-22.57 0-40.02-3.4-48.4-5.41a93.05 93.05 0 0 1-13.85-4.28l11.2 19.1 4.37 59.73c0 6.7 21.27 12.12 47.5 12.12s47.5-5.43 47.5-12.12l3.47-60.37 10.58-18.52a92.08 92.08 0 0 1-13.97 4.34c-8.38 2.02-25.83 5.4-48.4 5.4Zm62.74-194.33c-16.57 2.31-38.56 3.59-61.92 3.59s-45.35-1.28-61.92-3.59c-8.2-1.14-14.7-2.5-19.3-4.02-1.1-.36-2.95-.98-4.74-1.96l10.27 94.47a92.35 92.35 0 0 1 5.78-14.6 86.2 86.2 0 0 1 5.16-8.99 69.48 69.48 0 0 1 5.95-7.79 47.48 47.48 0 0 1 6.47-6.12 30.8 30.8 0 0 1 6.7-4 16.99 16.99 0 0 1 6.7-1.45c2.55 0 5.02.7 7.4 2.1 2.38 1.39 4.6 3.64 6.68 6.76.48.7.78 1.4.9 2.12.13.71.2 1.38.2 2.01 0 1.5-.36 2.68-1.08 3.54a3.21 3.21 0 0 1-2.54 1.3c-.9 0-1.73-.48-2.5-1.43-.77-.94-1.63-2.3-2.58-4.05a9.8 9.8 0 0 0-2.97-3.46 6.24 6.24 0 0 0-3.5-1.07c-1.97 0-4.06.81-6.29 2.44a36.5 36.5 0 0 0-6.61 6.44 70.61 70.61 0 0 0-6.29 9.16c-2 3.43-3.77 6.95-5.32 10.55a75.36 75.36 0 0 0-3.67 10.65 37.85 37.85 0 0 0-1.37 9.44c0 .93.07 1.88.2 2.86.12.98.36 1.86.7 2.66.36.8.83 1.45 1.44 1.97.6.51 1.36.77 2.29.77 1.03 0 2.2-.35 3.53-1.05 1.31-.7 2.68-1.6 4.1-2.73a51.48 51.48 0 0 0 4.26-3.84 68.31 68.31 0 0 0 7.27-8.53 24.88 24.88 0 0 0 2.14-3.51l3.9-11.7a5.5 5.5 0 0 1 1.88-2.69c.77-.53 1.56-.8 2.37-.8.4 0 .79.07 1.18.2a2.98 2.98 0 0 1 1.79 1.72c.18.45.27.97.27 1.57 0 1.6-.14 3.09-.42 4.48a35.6 35.6 0 0 1-1.07 4.08 70.34 70.34 0 0 1-1.45 4 98.95 98.95 0 0 0-1.56 4.22c-.1.16-.31.68-.6 1.56a247.92 247.92 0 0 0-2.44 7.77l-1.52 5.02a408.41 408.41 0 0 0-2.77 9.49 1259.14 1259.14 0 0 0-1.4 4.93 11.67 11.67 0 0 1-1.77 3.6 6.71 6.71 0 0 1-1.39 1.44c-.5.39-1.02.58-1.55.58-.9 0-1.55-.3-1.96-.9-.4-.6-.6-1.69-.6-3.28v-.7c0-.23 0-.48.03-.74.03-.54.24-1.53.63-3a291.07 291.07 0 0 1 3.17-10.68l1.71-5.29a83.67 83.67 0 0 1-4.83 4.95 52.13 52.13 0 0 1-5.34 4.43 31.65 31.65 0 0 1-5.5 3.21 13.03 13.03 0 0 1-5.34 1.25 9.55 9.55 0 0 1-5.07-1.3c-.25-.15-.5-.33-.73-.5l5.7 59.89c1.5 3.72 29.49 12.88 66.4 12.88 36.93 0 64.93-9.17 66.4-12.9l8.2-71.2-1.97 1.83a86.05 86.05 0 0 1-6.67 5.65 30.05 30.05 0 0 1-6.11 3.66c-1.99.86-4.12 1.29-6.39 1.29-2.13 0-3.77-.47-4.94-1.4a4.64 4.64 0 0 1-1.74-3.83v-.37a9.05 9.05 0 0 1 1.35-3.86c.75-1.3 1.66-2.64 2.73-4.03 1.06-1.4 2.2-2.8 3.4-4.23a195.7 195.7 0 0 0 3.34-4.06 39.18 39.18 0 0 0 2.54-3.5 5.27 5.27 0 0 0 1.01-2.6c0-.4-.14-.7-.42-.94-.28-.23-.74-.35-1.38-.35-1.13 0-2.28.3-3.47.87-1.2.58-2.37 1.36-3.53 2.34-1.16.98-2.3 2.1-3.4 3.36a49.57 49.57 0 0 0-5.76 8.04 57.77 57.77 0 0 0-2.76 5.35l-1 2.24c-.37.83-.75 1.69-1.16 2.56-.4.88-.78 1.72-1.11 2.5l-.9 2.08a47.2 47.2 0 0 1-.57 1.27c-.14.3-.38.87-.7 1.7a331.72 331.72 0 0 0-2.43 6.42 975.1 975.1 0 0 0-2.38 6.37c-.3.83-.5 1.4-.59 1.69-.28.86-.6 1.67-.98 2.44-.38.76-.82 1.43-1.3 2.02a5.96 5.96 0 0 1-1.69 1.39 4.3 4.3 0 0 1-2.12.52 4.14 4.14 0 0 1-2.5-.72c-.66-.48-.99-1.4-.99-2.76 0-.67.09-1.35.25-2.04.17-.7.38-1.39.63-2.07l.78-1.99c.27-.65.51-1.27.74-1.87 1.51-3.32 3.05-6.64 4.62-9.98 1.57-3.33 3.07-6.63 4.52-9.9l.87-2.03-.26.26a55.79 55.79 0 0 1-5.44 4.66 28.87 28.87 0 0 1-5.38 3.2c-1.78.8-3.51 1.2-5.2 1.2a6.7 6.7 0 0 1-2.87-.55 4.8 4.8 0 0 1-1.85-1.49 5.96 5.96 0 0 1-.99-2.24c-.07-.3-.1-.6-.15-.91-.5.38-.99.76-1.49 1.11a30.17 30.17 0 0 1-5.13 2.96c-1.67.75-3.19 1.12-4.53 1.12a4.3 4.3 0 0 1-3.28-1.34c-.84-.9-1.26-2.43-1.26-4.58 0-1.53.22-3.3.67-5.33-.73 1.3-1.64 2.6-2.73 3.93a23.95 23.95 0 0 1-3.74 3.64 18.69 18.69 0 0 1-4.7 2.66 15.44 15.44 0 0 1-5.68 1.02c-.92 0-1.81-.12-2.67-.35a5.6 5.6 0 0 1-3.8-3.46 9.35 9.35 0 0 1-.59-3.56l.17-1.52c.11-.97.47-2.52 1.07-4.62.6-2.11 1.53-4.84 2.8-8.2 1.26-3.34 3.03-7.4 5.33-12.19a6.72 6.72 0 0 1 2.04-2.7 4.23 4.23 0 0 1 4.9-.1c.36.24.65.56.88.94.22.38.33.82.33 1.32 0 .33-.04.64-.12.94-.14.57-.44 1.3-.9 2.22-.47.91-1 1.95-1.63 3.13a293.7 293.7 0 0 0-1.95 3.81 54.34 54.34 0 0 0-1.91 4.23 42.24 42.24 0 0 0-1.51 4.46 19.2 19.2 0 0 0-.72 4.4c0 .6.14 1.15.42 1.64.28.5.75.75 1.39.75 1.82 0 3.56-.6 5.21-1.8a23.16 23.16 0 0 0 4.58-4.45 42.77 42.77 0 0 0 3.8-5.72 72.4 72.4 0 0 0 2.84-5.6c.53-1.13 1-2.34 1.4-3.63.41-1.3.86-2.5 1.33-3.59.48-1.1 1.02-2 1.64-2.74a2.9 2.9 0 0 1 2.31-1.09c1.01 0 1.8.38 2.4 1.15.59.76.88 1.67.88 2.73 0 .6-.19 1.42-.57 2.47a70.18 70.18 0 0 1-1.43 3.58c-.57 1.34-1.2 2.78-1.87 4.3a75.54 75.54 0 0 0-1.87 4.66 46.12 46.12 0 0 0-1.42 4.63c-.38 1.5-.57 2.91-.57 4.2 0 1.2.61 1.8 1.85 1.8.86 0 1.94-.3 3.23-.9 1.3-.6 2.64-1.44 4.06-2.51l1.06-.85c.4-1.63.86-3.13 1.4-4.5.98-2.6 1.97-5.16 2.98-7.72l2.77-7.02 12.74-32.1c.5-1.3 1.18-2.2 2.03-2.74.86-.53 1.72-.8 2.59-.8.87 0 1.66.29 2.37.85.72.57 1.07 1.48 1.07 2.74 0 .6-.11 1.23-.35 1.89a22.9 22.9 0 0 1-.9 2.14 807.87 807.87 0 0 0-9.01 21.38l-3.41 8.39a1011.58 1011.58 0 0 0-5.61 14.08c-.31.76-.61 1.65-.9 2.67a9.8 9.8 0 0 0-.45 2.7c0 .5.09.9.25 1.2.17.3.5.45.97.45.59 0 1.32-.2 2.2-.62.89-.42 1.84-.97 2.86-1.65a45.66 45.66 0 0 0 3.2-2.33 99.15 99.15 0 0 0 9.1-8.2c.18-.18.4-.32.64-.42.47-1.41.9-2.8 1.29-4.15l.92-2.54c.4-1.1.84-2.17 1.35-3.24.5-1.06 1.07-1.98 1.7-2.76.63-.78 1.3-1.17 2.04-1.17 1.12 0 1.93.26 2.43.77.5.52.76 1.27.76 2.27 0 .2-.03.51-.08.94a33.14 33.14 0 0 1-.49 2.74c-.1.43-.19.75-.27.95a56.64 56.64 0 0 1 3.36-3.36 34.59 34.59 0 0 1 3.74-3.01c1.3-.9 2.6-1.63 3.95-2.2 1.35-.56 2.7-.84 4.04-.84.92 0 1.84.13 2.75.4.9.26 1.72.65 2.44 1.17.71.51 1.3 1.16 1.74 1.94.45.78.67 1.68.67 2.71 0 1.36-.34 2.81-1.03 4.36a31.55 31.55 0 0 1-2.58 4.65 58.26 58.26 0 0 1-3.36 4.56c-1.2 1.47-2.33 2.81-3.39 4.03a343.6 343.6 0 0 0-2.64 3.08c-.72.85-1.09 1.42-1.12 1.72 0 .4.13.72.38.97s.67.38 1.26.38c.48 0 1.18-.27 2.1-.8.93-.53 2.22-1.45 3.89-2.76 1.67-1.31 3.78-3.07 6.35-5.28 1.75-1.51 3.81-3.32 6.13-5.37l11.12-102.93c-1.8 1-3.66 1.61-4.75 1.97-4.6 1.52-11.1 2.88-19.3 4.02ZM87.47 86c-48.04 0-87 5.37-87 12s38.96 12 87 12c48.05 0 87-5.37 87-12s-38.95-12-87-12Zm34.74 15.5c0 1.56-4.63 2.82-10.34 2.82-5.7 0-10.34-1.26-10.34-2.81 0-1.56 4.63-2.82 10.34-2.82s10.34 1.26 10.34 2.82Z"/><path d="M103.63 100.25a.47.47 0 0 0-.08.25c0 1 3.73 1.82 8.32 1.82 4.6 0 8.32-.81 8.32-1.82l10.88-44.08 43.23-45.64a.88.88 0 0 0 .04-.04c.91-1.04-.94-4.24-4.02-6.99-3.08-2.75-6.41-3.68-7.44-2.63l-.03.02-46.13 48.54-13.1 50.57Z"/></g></svg>