<svg xmlns="http://www.w3.org/2000/svg" viewBox="0 0 24 24"><defs><style>.a{fill:none;stroke:#000;stroke-linecap:round;stroke-linejoin:round}</style></defs><path class="a" d="M3.9 19.5H2.5a2 2 0 0 1-2-2v-15a2 2 0 0 1 2-2h19a2 2 0 0 1 2 2v15a2 2 0 0 1-2 2h-1.51M.5 5.5h23"/><path d="M4 2.25a.75.75 0 1 0 .75.75.75.75 0 0 0-.75-.75ZM7 2.25a.75.75 0 1 0 .75.75.75.75 0 0 0-.75-.75ZM10 2.25a.75.75 0 1 0 .75.75.75.75 0 0 0-.75-.75Z"/><circle class="a" cx="12" cy="17.5" r="6"/><path class="a" d="M12 11.5v-3M10.5 8.5h3M7 11.5l1.29 1.29M17 11.5l-1.29 1.29M12.53 16.97l1.59-1.59"/><path d="M12 16.75a.75.75 0 1 0 .53.22.74.74 0 0 0-.53-.22Z"/></svg>