<svg width="256" height="293" viewBox="0 0 256 293" xmlns="http://www.w3.org/2000/svg" preserveAspectRatio="xMidYMid"><path d="M78.67 179.03c-4.65 2.9-11.66 7.62-17.08 12.74-8.9 8.4-10.76 20.06-6.06 22.78 4.34 2.52 14.48-.47 21.73-8.39 7.62-8.3 10.76-18.84 7.51-30.8l-1.12.67v.02l-.48.28-4.5 2.7Zm130.67-3.77c-2.63 5.72-2.77 7.56-1.97 8.14 3.83-1.38 10.15-4.69 10.2-13.55 0-1.33-.28-2.76-.75-4.25a30.84 30.84 0 0 0-7.48 9.66Zm41.01-17.31c-10.2-1.19-18.18.24-24.36 2.82a29.2 29.2 0 0 1 2.15 9.2c.29 6.87-4.44 11.95-9.36 15.58a31.06 31.06 0 0 1-8.5 4.37c-2.06.87-4.78 1.76-6.72 1.37-4.27-.87-6.54-4.66-3.64-13.03 1.57-4.53 6.1-11.42 13.4-17.36-1.66-3.43-3.52-6.92-4.47-10.13a82.54 82.54 0 0 1-2.42-10.15s-6.02 12.49-13.8 23.84c-.44.66-.89 1.3-1.34 1.95 1.53 3.55 2.73 7.3 2.9 11.08.28 6.86-2.69 12.05-7.62 15.67a31.04 31.04 0 0 1-7.96 4.19c-1.56.68-4.74 1.8-9.26 2.1-2.47.17-4.84.02-6.17-.98-1.83-1.38-2.05-3.09-1.1-5.41.8-1.98 6.78-8.81 11.8-14.8 1.39-1.65 2.7-3.33 3.89-4.9l-.03-.06s.9-1.18 2.38-3.22c-1.83-3.95-4.16-8.06-5.25-11.8-1.86-6.32-2.43-10.14-2.43-10.14s-6.1 15.65-12.46 28.14a403.52 403.52 0 0 1-9.69 18.1l-.01.1s-.22.38-.6.97l-.3.48v-.05c-1.65 2.44-5.35 7.22-9.04 7.22-10.1 0-6.4-20.53-6.4-20.53s-2.95 7.6-6.28 14.13c-2.71 5.32-5.18 9.83-10.59 9.83-1.55 0-4.02-.05-6.07-2-4.64-4.4-8.19-15.6-7.5-24.28.6-7.38 1.74-12.49 3.3-16.75-2.78 1.51-5.99 3.3-9.25 5.22l-5.02 2.96.16.29c4.16 8.03 5.26 25.62-3.79 39.13-9.05 13.51-25.9 21.73-42.32 17.17-5.3-1.48-13.3-12.44-6.4-27.71 6.1-13.47 30.43-26.2 36.84-29.38l1.76-.97C66 159.02 34.08 143.93 29.6 120.75c-1.27-6.52 1.8-22.13 20.95-40.06 16.12-15.09 38.53-26.64 59.24-34 34.8-12.37 71.55-5.07 77.2 17.1 5.57 21.82-13.36 47.91-37.6 57.3-21.63 8.37-39.52 7.04-46.87 4.63-8.36-2.75-13.26-8.26-14.45-11.37-.47-1.22-1.28-3.27 0-3.97.78-.44 1.1-.33 3.2 1.98 1.99 2.2 10.01 8.12 25.26 6.4 40-4.48 64.1-35.58 56.48-52.31-5.33-11.72-36.16-17-74.68 2.2-47.02 23.45-49.57 42.77-49.98 50.11-1.1 20.2 24.9 30.82 38.98 45.83l.54.6L96 160.7c7.1-3.9 13.78-7.55 16.9-9.25 4.95-7.2 15-15.14 22.25-15.14 11.6 0 7.62 16.66 7.62 16.66s.23-.76.55-.77c.33 0 1.6-2.2 5.19-.89 3.68 1.36 2.84 3.94 2.86 4.2.05.52-4.35 15.34-6.17 24.84-.88 4.54-.37 7.84-.11 7.84.36 0 1.1-1.15 1.77-2.4l-.01-.03s.51-.94 1.37-2.63l.17-.35v.02c1.02-1.99 2.44-4.9 4.08-8.51 3.22-7.1 15.51-34.5 16.55-37.53 1.04-3.03 1.59-6.16 2.1-7.5.5-1.35 4.85-2.36 9.92-2.33 5.08.04 5.6 2.2 5.63 2.65.04.45-2.41 6.46-2.98 10.71-.55 4.25-.02 6.37.44 9.94.3 2.33 1.76 5.3 3.49 8.65 5.25-8.6 14.5-25.02 15.38-29.62.6-3.15 1.58-6.17 2.1-7.5.51-1.35 4.85-2.36 9.92-2.33 5.08.04 5.59 2.2 5.63 2.65.03.45-2.42 6.46-2.98 10.71-.56 4.24-.02 6.37.44 9.94.4 3.05 2.76 7.15 5.1 11.82a51.27 51.27 0 0 1 22.7-5.3c3.65-.03 7.89.34 10.07 1.02V80.05c0-4.95-2.54-9.52-6.83-11.99L134.62 1.86a13.78 13.78 0 0 0-13.82 0L6.57 68.03C2.3 70.5 0 75.08 0 80.03v132.46c0 4.95 2.3 9.52 6.58 12L121 290.7a13.64 13.64 0 0 0 13.75 0l114.47-66.23A13.73 13.73 0 0 0 256 212.5v-53.53a37.41 37.41 0 0 0-5.65-1.01Zm-123.23-6.94c-2.46 2.75-6.65 9.85-8.6 15.8-3.9 11.79-2.21 23.77.55 24.5 3.22.83 8.5-14.93 11.03-21.1 1.58-3.86 7.74-21 6.4-23.28-1.06-1.8-5.43-.35-9.38 4.08Zm44.56 39.75s-.78.74-.44.94c.46.28 1.44-.08 2.51-.63 3.03-1.91 9.83-6.67 9.84-13.7 0-.21 0-.41-.02-.62a276.36 276.36 0 0 1-4.28 5.47c-2.14 2.67-7.6 8.54-7.6 8.54Z" fill="#8CC84B"/></svg>