<svg width="512" height="512" viewBox="0 0 512 512" fill="none" xmlns="http://www.w3.org/2000/svg"><path d="M432 24H128a16 16 0 0 0-16 16v384a16 16 0 0 0 16 16h304a16 16 0 0 0 16-16V40a16 16 0 0 0-16-16Z" fill="#4E89DE"/><path d="M416 56H144v352h272V56Z" fill="#91BCFB"/><path d="M197.68 261.68a19.35 19.35 0 0 0-27.36 0L112 320V192l-30.63 30.63A32.01 32.01 0 0 0 72 245.26V344l-56 80 64 72 48-80 16.3-8.15a48 48 0 0 0 25.87-50.82L168 344l32.91-59.24a19.35 19.35 0 0 0-3.23-23.08ZM384 96h-48v48h48V96Z" fill="#FCDCC8"/><path d="m309.66 114.34-24-24-11.32 11.32L284.7 112H248v16h36.69l-10.35 10.34 11.32 11.32 24-24a8 8 0 0 0 0-11.32Z" fill="#EFC8B4"/><path d="M200 144a24 24 0 1 0 0-48 24 24 0 0 0 0 48Z" fill="#FCDCC8"/><path d="M392 176H168v16h224v-16ZM392 216H168v16h224v-16ZM240 320h-40v16h40v-16Z" fill="#68A3F8"/><path d="M272 334.35A112 112 0 1 0 318.28 280L240 256l32 78.35Z" fill="#FCDCC8"/><path d="M240 360h-40v16h40v-16Z" fill="#68A3F8"/><path d="M344 312a16 16 0 0 0-16 16v96h96V312h-80Z" fill="#EFB465"/><path d="M344 408a16 16 0 0 0 0 32h80v-32h-80Z" fill="#D7A25B"/><path d="M400 344h-48v16h48v-16Z" fill="#F3C990"/></svg>