<svg xmlns="http://www.w3.org/2000/svg" viewBox="0 0 48 48" width="480" height="480"><path fill="#F44336" d="M5 18h2v12.2l-2.3.3L2 23.7v7.1c.4 0-.2 0-2 .3v-13h2l3 7.3V18zm9.7 2v-2H9v12l5.7-.6v-2c-1.2.1-2.4.1-3.7.4V25h3v-2h-3v-3c.6.1 3.2.1 3.7 0zm1.3 0h2v9.2c.7 0 1.3 0 2-.1V20h2v-2h-6v2zm12.6-2H23v11h2v-4h2.7v-2H25v-3h3.6v-2zm3.4 9.5V18h-2v11.2c1.8.1 3.6.2 5.4.4v-1.9c-1.1-.1-2.3-.2-3.4-.2zm5 2.2c.7.1 1.3.1 2 .2V18h-2v11.7zm8.4-5.5c.9-2 1.7-4 2.6-6.1h-2.2c-.5 1.3-.9 2.2-1.4 3.4-.5-1.3-.8-2.2-1.3-3.4h-2.2c.8 2 1.5 4 2.4 6.1-.9 2-1.7 4-2.6 6l2.1.3c.5-1.3 1-2.2 1.5-3.5.5 1.4 1 2.4 1.5 3.8l2.3.3c-1-2.4-1.9-4.8-2.7-6.9z"/></svg>